<svg xmlns="http://www.w3.org/2000/svg" viewBox="0 0 140 140"><title>Instagram</title><path d="M70 56.5c-7.4 0-13.5 6-13.5 13.5s6 13.5 13.5 13.5c7.4 0 13.5-6 13.5-13.5s-6-13.5-13.5-13.5z"/><path d="M70 0C31.3 0 0 31.3 0 70s31.3 70 70 70 70-31.3 70-70S108.7 0 70 0zm22 106c-1.8.6-4 1-6 1H54c-10.4 0-19.6-8.6-21-18.8v-3.5-29.5c-.3-11.4 8.3-21 19.7-22.2H85c5.8-.2 11.6 2 15.8 6.2 4.2 4.2 6.4 10 6.3 16v29.6c.2 9.6-5.8 18-15 21z"/><path d="M100 51.8c-1.4-7.2-7.8-12.3-15-12H55c-1 0-2 0-3.2.2-7 1.4-12.2 7.7-12 15-.2 10 0 20 0 30 0 1.2 0 2.2.2 3.2 1.4 7.2 7.7 12.2 15 12h29.6c1.2 0 2.4 0 3.6-.2 7-1.4 12.2-7.6 12-15 .2-10 0-20 0-30.2 0-1 0-2-.2-3zM70 90.2c-11.3 0-20.3-9-20.2-20.3 0-11.2 9-20.3 20.2-20.2 11.2 0 20.2 9 20.2 20.2 0 5.4-2 10.5-6 14.3-3.8 3.8-9 6-14.3 6zm20-37c-1.7 0-3-1.5-3-3 0-1.8 1.4-3 3-3s3 1.2 3 3c0 .7-.3 1.5-1 2-.5.6-1.3 1-2 1z"/></svg>