<svg xmlns="http://www.w3.org/2000/svg" viewBox="0 0 195.57 197.85"><title>Nourish Snacks</title><path d="M7.2 100.3H0V75.45h7.1v1.72a8.16 8.16 0 0 1 5.9-2.32c6.14 0 10.14 4.06 10.14 11v14.45h-7.27V86.4c0-2.83-1.32-4.86-4.1-4.86-3 0-4.57 2.13-4.57 6.34zM15.52 46.9a12.62 12.62 0 0 1 3.75-9.3 12.94 12.94 0 0 1 9.38-3.74A12.74 12.74 0 0 1 38 37.6a12.47 12.47 0 0 1 3.8 9.3 12.74 12.74 0 0 1-13.13 13 12.74 12.74 0 0 1-13.13-13zm7.35 0a6.47 6.47 0 0 0 1.63 4.5 5.76 5.76 0 0 0 8.32 0 7.1 7.1 0 0 0 0-9 5.76 5.76 0 0 0-8.32 0 6.48 6.48 0 0 0-1.63 4.5zM65.72 8.45H73V33.3h-7.1v-1.73a8.23 8.23 0 0 1-6.2 2.28c-5.82 0-9.27-4-9.27-11V8.45h7.25V22.6c0 2.8 1.32 4.6 3.8 4.6 2.84 0 4.26-2 4.26-6zM110.22 7.93h-1.12c-4.2 0-6.9 2.74-6.9 7.8v10.4H95V1.3h7.1V3.5a7.64 7.64 0 0 1 6.2-2.6h1.92zM135 0a4.14 4.14 0 0 1 4.2 4.2 4.22 4.22 0 0 1-4.2 4.17A4.18 4.18 0 0 1 135 0zm-3.6 36.1V11.27h7.25V36.1zM162.48 48.14c-5.43-1.37-8.1-4.06-8.1-8.1a6.73 6.73 0 0 1 2.78-5.7 10.75 10.75 0 0 1 6.84-2.18 14.6 14.6 0 0 1 10 3.9l-4.4 4.67a9.24 9.24 0 0 0-5.9-2.43c-1.4 0-2.32.66-2.32 1.47 0 .6.6 1.07 1.78 1.32l3.7.85c5.43 1.27 8.16 4 8.16 8.22 0 4.72-4.06 8-10.4 8a14.34 14.34 0 0 1-10.9-4.82l4.4-4.5a10.14 10.14 0 0 0 7.1 3.3c1.48 0 2.8-.67 2.8-1.63 0-.66-.76-1.22-2.23-1.57zM179.64 100.42h-7.2v-30.5h7.2V77a8.13 8.13 0 0 1 5.78-2c6.14 0 10.14 4.06 10.14 11v14.45h-7.25V86.53c0-2.84-1.3-4.87-4.1-4.87-3 0-4.56 2.13-4.56 6.34zM16.16 131.1c-.76-4.75.55-7.8 3.9-9.18a6.17 6.17 0 0 1 5.78.36 9.7 9.7 0 0 1 4.06 4.83 11.86 11.86 0 0 1-.35 9.64l-3.43-1.32a8.93 8.93 0 0 0 .47-7.23c-1-2.48-3-3.67-4.96-2.9-1.73.72-2.4 2.3-2 4.8l.64 3.94c.76 4.76-.5 7.8-3.77 9.13-4.05 1.67-8.23-.54-10.36-5.72a12.78 12.78 0 0 1 .5-11l3.36 1.3a9.2 9.2 0 0 0-.66 8.36c1.32 3.23 3.42 4.6 5.6 3.7 1.64-.66 2.26-2.34 1.85-5zM44.68 151.32l-2 2.3A10.14 10.14 0 0 1 51 156c4.8 4.1 4.9 9.4.34 14.7L42 181.6l-2.87-2.46L48.67 168c3-3.5 2.9-6.95-.12-9.54-3.68-3.15-8.07-2.07-11.9 2.42l-8 9.3-2.84-2.42L41.93 149zM67.45 186.7c1.08-4.77 5.3-6.76 10.63-5.55a24.24 24.24 0 0 1 6.32 2.68l.56-2.46c.82-3.6-1.12-6.2-4.67-7a7 7 0 0 0-7.22 2.55l-2-2.93a9.77 9.77 0 0 1 10-3c5.86 1.32 8.77 5.56 7.4 11.6L85 197.86l-3.5-.85.57-2.5a9.77 9.77 0 0 1-8.17 1.34c-4.57-1-7.5-4.56-6.45-9.14zm7.4 6a9.28 9.28 0 0 0 8.05-2.2l.74-3.25a20.85 20.85 0 0 0-6.13-2.64c-3.68-.83-5.84.5-6.43 3s1 4.45 3.77 5.08zM132.12 188.37a12.26 12.26 0 0 1-8.42 7 11.86 11.86 0 0 1-9.53-1.43 12.93 12.93 0 0 1-5.68-8 12.7 12.7 0 0 1 1.27-9.75 11.92 11.92 0 0 1 7.7-5.92 11.47 11.47 0 0 1 10 2l-1.83 3a8.48 8.48 0 0 0-7.33-1.58 8.1 8.1 0 0 0-5.38 4.18 9.44 9.44 0 0 0-.75 7.1c1.35 5.34 5.6 8.33 10.93 7a8.57 8.57 0 0 0 5.9-5.24zM156.48 179.58L140 161.13l2.8-2.48 8.42 9.45.12-17.08 3.65-3.26-.23 14.24 17.1 3.87-3.57 3.13-13.58-3.1-.1 6 4.64 5.2zM177.86 135c-2.83 3.9-5.9 5.14-9.26 3.74a6.16 6.16 0 0 1-3.83-4.32 9.7 9.7 0 0 1 .54-6.28 11.86 11.86 0 0 1 7.06-6.57l1.5 3.36a8.93 8.93 0 0 0-5.43 4.8c-1 2.46-.44 4.72 1.47 5.52 1.72.72 3.3.06 4.77-2L177 130c2.83-3.9 5.86-5.16 9.12-3.8 4.05 1.7 5.45 6.2 3.3 11.37a12.78 12.78 0 0 1-8.12 7.44l-1.43-3.26a9.2 9.2 0 0 0 6.36-5.44c1.34-3.2.83-5.67-1.36-6.58-1.63-.68-3.25.07-4.8 2.2zM186.36 110.47a5.36 5.36 0 0 1 7.63 0 5.5 5.5 0 0 1 0 7.7 5.4 5.4 0 0 1-7.64 0 5.6 5.6 0 0 1 0-7.7zm.75 7a4.1 4.1 0 0 0 3.07 1.28 4.15 4.15 0 0 0 3.08-1.28 4.57 4.57 0 0 0 0-6.3 4.1 4.1 0 0 0-3.08-1.3 4 4 0 0 0-3.06 1.3 4.63 4.63 0 0 0 0 6.3zm4.27-.86l-1.06-1.5h-.88v1.5h-1v-4.94h2.23a1.68 1.68 0 0 1 1.77 1.7 1.7 1.7 0 0 1-1.07 1.6l1.2 1.65zm-2-4.07v1.65h.93c.7 0 1-.28 1-.83s-.36-.83-1-.83z"/></svg>