<svg xmlns="http://www.w3.org/2000/svg" viewBox="0 0 140 140"><title>Pinterest</title><path d="M70 0C31.6 0 0 31.6 0 70s31.6 70 70 70 70-31.6 70-70S108.4 0 70 0zm-5.75 83.4c-2.18 11.44-4.84 22.4-12.73 28.13-2.44-17.28 3.58-30.26 6.37-44-4.77-8 .56-24.14 10.6-20.16 12.35 4.9-10.7 29.8 4.78 32.9C89.43 83.47 96 52.2 86 42c-14.48-14.7-42.14-.33-38.74 20.7.83 5.13 6.14 6.7 2.12 13.8-9.26-2.06-12-9.37-11.67-19.1.6-15.94 14.3-27.1 28.15-28.65 17.45-2 33.82 6.4 36.08 22.82 2.55 18.52-7.88 38.6-26.53 37.14-5.06-.38-7.18-2.9-11.15-5.3z"/></svg>