<svg xmlns="http://www.w3.org/2000/svg" viewBox="0 0 140 140"><title>Twitter</title><path d="M70 0C31.34 0 0 31.34 0 70s31.34 70 70 70 70-31.34 70-70S108.66 0 70 0zm34.2 58v2c0 20.6-15.67 44.33-44.34 44.33-8.47 0-16.76-2.42-23.88-7 8.24.98 16.53-1.34 23.07-6.45-6.67-.12-12.52-4.47-14.56-10.82.96.18 1.94.28 2.92.28 1.42 0 2.83-.18 4.2-.55-7.22-1.5-12.4-7.88-12.37-15.26v-.2c2.14 1.23 4.54 1.9 7 1.96-4.36-2.9-7-7.77-7-13 0-2.75.7-5.46 2.1-7.84 7.9 9.74 19.56 15.66 32.1 16.3-.28-1.18-.42-2.37-.42-3.57 0-6.4 3.9-12.16 9.87-14.5 5.95-2.35 12.73-.82 17.1 3.86 3.5-.7 6.84-1.97 9.9-3.8-1.17 3.63-3.63 6.7-6.9 8.64 3.1-.36 6.14-1.2 9-2.46-2.1 3.13-4.74 5.86-7.8 8.06z"/></svg>