<svg id="Layer_1" data-name="Layer 1" xmlns="http://www.w3.org/2000/svg" xmlns:xlink="http://www.w3.org/1999/xlink" viewBox="0 0 800 800"><defs><style>.cls-1{fill:#444a9c;}.cls-2{clip-path:url(#clip-path);}.cls-3{fill:#ff9e6e;}</style><clipPath id="clip-path"><rect class="cls-1" x="-1652" y="-198" width="1200" height="1200"/></clipPath></defs><title>Artboard 1</title><rect class="cls-1" x="-11" y="-16" width="821" height="821"/><rect class="cls-1" x="-1652" y="-198" width="1200" height="1200"/><g class="cls-2"><rect class="cls-1" x="-1652" y="-498" width="1200" height="1800" transform="translate(-23.87 861.62) rotate(45)"/><rect class="cls-3" x="-1574.88" y="712.46" width="1800" height="133.33" transform="translate(-748.59 -249.01) rotate(-45)"/><rect class="cls-1" x="-1480.66" y="806.68" width="1800" height="133.33" transform="translate(-787.62 -154.79) rotate(-45)"/><rect class="cls-3" x="-1386.38" y="900.96" width="1800" height="133.33" transform="translate(-826.67 -60.51) rotate(-45)"/></g><rect class="cls-1" x="-11" y="-16" width="821" height="821"/><g id="uTF7yP"><path class="cls-3" d="M390.48,357.36l22.8-5.25,1,11.38c.56-1.05.88-1.67,1.21-2.27,3.79-7,10.5-10.16,18.17-8.65,6.17,1.21,9.27,5.57,10.51,11.2a65,65,0,0,1,1.57,13.35c.17,18.07.06,36.15.08,54.22,0,2,.19,4,.31,6.07a7.27,7.27,0,0,0,3.21,5.76c.61.44.85,1.39,1.47,2.48H423.55a1.58,1.58,0,0,1,.86-2.4c2.09-.94,2.9-2.77,3.13-4.87a58.91,58.91,0,0,0,.39-6.26c0-17.31.08-34.62-.11-51.93-.05-5-.87-9.95-1.37-14.91a6.13,6.13,0,0,0-.56-1.81c-.64-1.44-1.49-2.67-3.24-2.87a4,4,0,0,0-3.94,2.14c-2.44,3.69-3.09,7.88-3.11,12.16q-.08,28.92,0,57.83a39.79,39.79,0,0,0,.59,6.23,6.08,6.08,0,0,0,3.1,4.55c.54.3.8,1.11,1.33,1.89a9.66,9.66,0,0,1-1.21.23c-11,.05-21.93.13-32.9.11a40,40,0,0,1-6-.66,8.42,8.42,0,0,1-7.28-6.1c-.23-.72-.51-1.42-.9-2.49-.49,1.13-.85,1.93-1.19,2.74-2.56,6-7.07,9.19-13.65,9.48-6.8.3-11.95-2.34-15.23-8.34-4.91-9-5.23-23.77,3.18-34,4.43-5.4,10-9.29,16-12.64,2.37-1.32,4.63-2.86,6.93-4.31a6.78,6.78,0,0,0,3.21-5.35,86.7,86.7,0,0,0-.31-21,12.32,12.32,0,0,0-.44-1.85c-.86-2.72-2.39-3.95-4.89-4-2.28,0-4.13,1.43-4.92,4-.93,3.06-.26,6,.66,9,1.18,3.72,2.13,7.4.91,11.34a9.54,9.54,0,0,1-9.45,7.09c-4.22.07-7.48-2.34-8.93-6.62A22.05,22.05,0,0,1,363.6,353a43,43,0,0,1,10.39.5c8.72,1.58,13.72,7.21,15.43,15.71a54.31,54.31,0,0,1,1,10.37c.1,17.12,0,34.24.07,51.36,0,2.91.33,5.81.54,8.71a5.66,5.66,0,0,0,.41,1.65c.45,1.12.85,2.25,2.45,2.22a2.6,2.6,0,0,0,2.8-2.32,73.2,73.2,0,0,0,1-9.8q.13-28.06,0-56.12a46.39,46.39,0,0,0-1.36-9.54,10,10,0,0,0-4-5.81A10.54,10.54,0,0,1,390.48,357.36Zm-20,37.33c-4.51,4.32-8.38,8.53-9.42,14.46a77.38,77.38,0,0,0-.71,21.75,19,19,0,0,0,1.69,6,4.4,4.4,0,0,0,2.9,2.23c.72.09,2.08-1.28,2.39-2.24a39.24,39.24,0,0,0,2.28-9.34c.53-8.33.62-16.7.85-25C370.54,400,370.48,397.57,370.48,394.69Z"/><path class="cls-3" d="M122.79,315.75h30.65a2.73,2.73,0,0,1-.89,2.76,7.66,7.66,0,0,0-1.91,4.7,131.47,131.47,0,0,0,1.24,14.16c1.87,13.48,3.9,26.95,5.87,40.42.93,6.39,1.84,12.79,2.76,19.18a5.85,5.85,0,0,0,.45,1l1.51-9.17c1.21-7.37,2.6-14.72,3.54-22.13.34-2.68-.25-5.52-.68-8.25q-2.57-16.52-5.34-33c-.44-2.59-.79-5.45-3.38-6.94a2.05,2.05,0,0,1-1.08-2.68H189.5c-.77,1.09-1.11,2.11-1.76,2.37a6.6,6.6,0,0,0-4.43,7.21c.34,4.16,1,8.29,1.64,12.43q2.74,18.8,5.52,37.59c1.15,7.83,2.3,15.65,3.74,23.49.78-4.81,1.6-9.62,2.32-14.44q2.8-18.69,5.52-37.4a61.07,61.07,0,0,0,.39-17.6c-.81-5.52-2.9-10-8.84-11.49,0-.39-.07-.64-.08-.89s0-.76,0-1.26h24.65c-.46,1-.6,2.09-1.19,2.45-4.33,2.66-6.5,6.74-7.42,11.47-1.55,8-2.89,16.08-4.2,24.13-2.51,15.37-4.93,30.76-7.4,46.14-2.35,14.63-4.74,29.25-7,43.89-.21,1.35-.6,1.85-2,1.78-2.4-.11-4.81-.1-7.21,0-1.19,0-1.67-.36-1.87-1.53q-4.75-29.25-9.57-58.49a65.71,65.71,0,0,0-1.84-8.35L157.3,445.62c-3.06,0-6,.05-9-.06-.41,0-1.07-.79-1.15-1.29-1.71-10.18-3.35-20.37-5-30.55q-4.51-27.65-9-55.31c-1.82-11.19-3.6-22.38-5.42-33.57-.44-2.69-1.37-5.1-3.86-6.69C123.28,317.79,123.19,316.73,122.79,315.75Z"/><path class="cls-3" d="M500.87,315.68h34.21c18.28,0,29.73,8.42,35.26,25.91,3,9.4,3.82,19.1,4.08,28.87.28,10.4.14,20.79-1.5,31.11-1.7,10.71-4.36,21.1-10.52,30.25-6.27,9.31-14.92,14.1-26.28,14-11-.12-22.07,0-33.11,0H501c-.52-1.34-.32-2.1,1.06-2.54,2.61-.84,4.07-2.89,5.11-5.29a29.32,29.32,0,0,0,2.05-11.71q.12-44.14.11-88.28c0-4.74-.27-9.51-2.16-14a11.4,11.4,0,0,0-5.37-5.92c-.61-.32-.9-1.24-1.34-1.89Zm30.38,60.5h.2c0,17-.07,34,.06,51a56.93,56.93,0,0,0,1.26,10,4.73,4.73,0,0,0,3.75,4.1c2.32.46,4.47-.12,5.66-2.17a41.71,41.71,0,0,0,4-8.5c2.92-9.58,3.75-19.52,4.21-29.46.4-8.61.45-17.23.63-25.85.25-11.73.32-23.46-1.4-35.1-.75-5.08-1.92-10.08-4.8-14.48a11,11,0,0,0-8.51-5.39c-4.44-.39-5.1.25-5.1,4.73Q531.25,350.59,531.25,376.18Z"/><path class="cls-3" d="M310.13,445.7H283.42c.28-.84.31-1.88.8-2.22,2.71-1.84,3.53-4.55,3.67-7.56.18-3.8.31-7.6.32-11.4,0-15,.09-30.06,0-45.09a124.1,124.1,0,0,0-1.07-13.24,12.09,12.09,0,0,0-1.55-4.44c-1.56-2.74-4.37-2.81-5.78,0a26.08,26.08,0,0,0-2.37,7.34,65.42,65.42,0,0,0-.87,10.4q-.12,26.06,0,52.13a51,51,0,0,0,.64,7,6.37,6.37,0,0,0,3.3,4.85c.56.32.76,1.25,1.32,2.23H253.2c.54-1,.74-2,1.33-2.36,2.76-1.55,3.69-4.06,4-6.94a41.75,41.75,0,0,0,.25-4.55c0-19.59.06-39.19-.05-58.78a29.11,29.11,0,0,0-1.39-8.55c-.55-1.74-2.21-3.13-3.35-4.68-.49-.67-.94-1.37-1.63-2.37l22.2-5.55.94,9.91c3.19-6.72,8.15-9.83,15.08-9.65,7.52.2,11.14,4.82,13.05,11.76,1.55-4.69,4.08-8.22,8.35-10.31a14.26,14.26,0,0,1,19.13,6,31.86,31.86,0,0,1,3.56,14.83c.21,11.16.17,22.32.24,33.47.05,9.26.07,18.51.17,27.77,0,3.19,1,6,4,7.71.52.3.65,1.27,1.1,2.22H312.3c.45-.92.6-1.92,1.16-2.26a7,7,0,0,0,3.52-5.95c.06-.88.21-1.77.21-2.65,0-20.16,0-40.33-.1-60.49a70.1,70.1,0,0,0-1-9,9.58,9.58,0,0,0-.78-2.53c-.65-1.47-1.44-2.89-3.35-2.93a3.38,3.38,0,0,0-3.3,2.69,62.09,62.09,0,0,0-2.33,9.54,74.4,74.4,0,0,0-.53,10.24q0,25.59.07,51.17a18,18,0,0,0,.77,5.61c.5,1.47,1.73,2.68,2.64,4l1.48,2.17Z"/><path class="cls-3" d="M630.53,433.72h1.91c1.3,5.17-2,11.61-7.29,13.18a23.79,23.79,0,0,1-8,.54,8.13,8.13,0,0,1-6.52-4.11c-1.4-2.29-2.5-4.77-3.5-6.71-1.55,2.2-3,5-5.07,7.06-6.77,6.83-18.65,5.53-24.09-2.39s-7.09-24.33,2.19-35.64c4.38-5.34,9.87-9.23,15.83-12.56,2.26-1.26,4.41-2.72,6.64-4a7.09,7.09,0,0,0,3.72-6.26c0-6.76-.05-13.53-.36-20.29-.11-2.38-.91-4.81-3.65-5.73-3.37-1.14-6.78,1.21-6.82,5.22a34.41,34.41,0,0,0,1.37,8.92c.84,3.19,1.37,6.3.51,9.53a9.53,9.53,0,0,1-9.53,7.48c-4.39,0-7.92-2.8-9.17-7.39a22.17,22.17,0,0,1,20.4-28.3c5.17-.28,10.27.07,15,2.39a17.7,17.7,0,0,1,9.72,12.67,52.06,52.06,0,0,1,1.26,10.91c.13,15.79,0,31.58.09,47.37a100.06,100.06,0,0,0,.74,10.6c.13,1.2.17,3.07,1.88,3.09s1.94-1.72,2.26-3.07C630.23,435.39,630.36,434.59,630.53,433.72Zm-25.62-39.18-.87-.21a30.61,30.61,0,0,0-7.89,12.45,55.66,55.66,0,0,0-2,21.79,28.23,28.23,0,0,0,1.7,7.34c.41,1.1,1.89,2.47,2.89,2.47s2.29-1.48,2.73-2.6a23.45,23.45,0,0,0,1.87-7.11C604,417.31,604.4,405.92,604.91,394.55Z"/><path class="cls-3" d="M254.62,399.3c-.09,9.91-.8,19.75-4.06,29.21a33.58,33.58,0,0,1-8.13,13.56c-8.29,8-20,7.72-27.82-.85-4.92-5.41-7.57-12-9-19-3.33-16.23-3.57-32.46.92-48.53,1.79-6.43,4.86-12.23,10.08-16.66a19,19,0,0,1,27.09,1.9c5.2,5.82,7.9,12.83,9.13,20.35,1.08,6.6,1.54,13.31,2.28,20Zm-32.28,0c.31,10.83.47,20.59.95,30.33A56,56,0,0,0,225,440.06a3.7,3.7,0,0,0,4.14,3.16c2,0,3.07-.93,3.86-3.29a13.44,13.44,0,0,0,.8-3.31c.54-8.34,1.3-16.67,1.41-25,.17-12.42,0-24.84-.33-37.26a95.48,95.48,0,0,0-1.86-14.64c-.48-2.58-1.94-3.38-4.15-3.37s-3.55.89-4.22,3.36a36.23,36.23,0,0,0-1.43,8C222.84,378.57,222.61,389.47,222.34,399.29Z"/><path class="cls-3" d="M622.87,353.45h31.26c.38,1.28.21,2.06-1.16,2.55a5.18,5.18,0,0,0-3.48,5.73,85.73,85.73,0,0,0,2,11.75c2.3,9.47,4.84,18.88,7.28,28.31.06.24.18.46.45,1.14,1.38-6.82,2.72-13.21,4-19.61,1.15-5.86,1.87-11.76,1.1-17.75-.57-4.36-2-8.1-6.56-9.87-.54-.21-.75-1.24-1.31-2.23H677a1.9,1.9,0,0,1-1.19,2.69,10.15,10.15,0,0,0-5.45,6.54c-1.57,5.06-3.06,10.18-4.15,15.36q-7.15,33.9-14,67.86c-1.33,6.63-2,13.4-3.23,20.06-.94,5.14-2.64,10-6.12,14.12-4.66,5.47-11.42,5.7-16.1.25-5.59-6.5-6.85-14-3.83-22,1.83-4.85,5.2-7,9.35-6.42s7.26,4,7.51,8.81c.17,3.36-.5,6.76-.84,10.14a29,29,0,0,0-.53,4.09,2.67,2.67,0,0,0,1.39,1.95c.45.19,1.66-.46,1.93-1,1.47-3.06,3.2-6.11,4-9.37a100.33,100.33,0,0,0,3-16.78c.26-3.6-.77-7.38-1.64-11q-8.85-36.91-17.89-73.76a23.66,23.66,0,0,0-1.93-5.53,8.49,8.49,0,0,0-3.13-3.35C622.91,355.42,622.46,354.83,622.87,353.45Z"/><path class="cls-3" d="M492.32,352.34c0,1.43,0,2.75,0,4.07q.06,12.36.13,24.72a6.46,6.46,0,0,1,0,1.52,11,11,0,0,1-.7,1.68c-.35-.48-.92-.91-1-1.44-1.32-6.28-2.9-12.49-6.07-18.1a25.54,25.54,0,0,0-5.2-6.68c-5.1-4.44-11.3-2.53-12.89,4-2,8.31-.54,15.44,7.63,20.09,2.15,1.22,4.27,2.49,6.49,3.55,8.14,3.9,12.76,10.33,14.07,19.2,1.48,9.95.93,19.72-3,29.11a29.42,29.42,0,0,1-3.73,6.36c-5.72,7.57-13.72,9.37-22.22,5.11a37.88,37.88,0,0,1-4.53-2.76c-2.26-1.57-3.63-1.28-4.59,1.35-.5,1.37-1.19,1.59-2.47,1.18V411.87c1.56-.71,2,.12,2.25,1.43a83.33,83.33,0,0,0,6.93,20.84,31.32,31.32,0,0,0,3.75,5.69c2.58,3.11,5.84,5,10,3.77s5.35-4.83,5.87-8.57c1-7.63-1.09-14-7.73-18.52-2.21-1.48-4.37-3-6.66-4.4-8-4.75-12.3-11.81-13.39-21-1.11-9.32-.66-18.5,3.19-27.2,2.51-5.67,6.43-10,12.8-11.48a13.65,13.65,0,0,1,9.42,1.17c1.86.93,3.64,2,5.44,3.11a1.69,1.69,0,0,0,2.69-.67,13.68,13.68,0,0,0,1.18-2.58C490.34,352.26,491,351.83,492.32,352.34Z"/><path class="cls-3" d="M449.37,363.74c-1.06-2.63-.66-4,.92-5.64,4.33-4.4,6.22-10,7-16.05-.22,0-.39-.09-.42,0-3.19,4.15-7.56,4.25-11,.25-4.3-5-4.65-14.78-.73-20.15s10.64-5.32,14.47.17a15.59,15.59,0,0,1,2.78,9.14c0,9.08-1.78,17.78-7.07,25.39A86,86,0,0,1,449.37,363.74Z"/></g></svg>